<?xml version="1.0" encoding="utf-8"?>
<!-- Generator: Adobe Illustrator 26.0.2, SVG Export Plug-In . SVG Version: 6.00 Build 0)  -->
<svg version="1.1" xmlns="http://www.w3.org/2000/svg" xmlns:xlink="http://www.w3.org/1999/xlink" x="0px" y="0px"
	 viewBox="0 0 200 200" style="enable-background:new 0 0 200 200;" xml:space="preserve">
<style type="text/css">
	.st0{fill:#72BF44;stroke:#000000;stroke-miterlimit:10;}
	.st1{fill:#FFFFFF;}
	.st2{fill:#019547;}
	.st3{fill:#A4DBD9;stroke:#000000;stroke-miterlimit:10;}
	.st4{fill:#FFFFFF;stroke:#000000;stroke-linecap:round;stroke-linejoin:round;stroke-miterlimit:10;}
	.st5{fill:#E5D9CB;stroke:#000000;stroke-miterlimit:10;}
</style>
<g id="Portal">
	<path class="st0" d="M31.39,62.21c0,0,4.35-18.33,10.55-20.84c1.19-0.73,5.74-6.13,5.74-8.77c0-2.64,9.16-14.77,17.47-15.23
		s20.31,0.79,24.4,3.56s6.79,9.69,10.35,11.8s9.89,2.9,13.85,18.26c1.45,3.63,2.84,11.54,4.09,12.73s2.04,16.88,2.04,16.88
		l2.11,43.32c0,0-6.59,19.52-6.46,21.3c0.13,1.78-3.56,6.2-3.56,6.2s-5.51,5.54-4.71,8.7c0.79,3.16-3.66,6.82-3.66,6.82
		s-6.13,14.14-13.45,16.62c-6.63,0.3-8.7,0.2-8.7,0.2s-16.22,1.78-19.78-2.57c-4.75-2.27-8.21-3.66-9.3-5.84
		c-1.09-2.18-6.53-3.56-6.53-3.56s-4.75-7.52-4.05-9.2c0.69-1.68-9.69-13.75-9.69-13.75s-3.96-20.08-3.07-22.15
		s-1.68-7.81-1.68-7.81s1.42-10.05-0.3-12.69c-1.71-2.64,0.66-25.71,0.66-25.71s0-2.11,0.92-2.77
		C29.55,77.04,27.04,71.9,31.39,62.21z"/>
	<g>
		<g>
			<path class="st1" d="M87.97,47.99c3.22,0,3.22-5,0-5C84.75,42.99,84.74,47.99,87.97,47.99L87.97,47.99z"/>
		</g>
	</g>
	<g>
		<path class="st2" d="M107.47,81.99c0.47-3.41-0.9-6.79-2.38-9.9c0.13,0.32-0.11,0.69-0.42,0.83c-0.31,0.15-0.67,0.13-1.01,0.11
			c0.81,1.06,0.61,2.55,0.93,3.84c0.27,1.1,0.92,2.1,1.04,3.23c0.07,0.68-0.02,1.46,0.43,1.98c0.11,0.12,0.25,0.22,0.41,0.25
			c0.31,0.05,0.6-0.23,0.68-0.53c0.08-0.3,0.02-0.63-0.05-0.93c-0.43-1.97-0.87-3.94-1.3-5.91c-0.13-0.59-0.26-1.18-0.43-1.76
			c-0.31-0.01-0.43,0.4-0.41,0.71c0.07,1.38,0.77,2.72,0.58,4.1c-0.06,0.46-0.22,0.9-0.25,1.36c-0.05,0.91,0.45,1.8,1.15,2.38
			c-0.33-0.97-0.53-1.98-0.6-3"/>
	</g>
	<g>
		<path class="st2" d="M104.64,71.62c-0.16-3.64-0.33-7.36-1.62-10.77c-1.41-3.72-4.06-6.82-6.65-9.84
			c-1.22-1.42-2.44-2.83-3.65-4.25c-0.79-0.92-1.59-1.85-2.61-2.49c-0.82-0.52-1.88-0.99-2-1.95c-0.04-0.33,0.01-0.74-0.25-0.93
			c-0.15-0.11-0.34-0.11-0.52-0.11c-1.91,0.03-3.83,0.06-5.74,0.08c-0.36,0.01-0.73,0.01-1.06,0.17c-1.01,0.51-0.83,1.99-0.49,3.07
			c-0.66-0.75-1.32-1.5-1.98-2.25c-0.06,0.82-0.12,1.64-0.18,2.46c-1.64-0.06-3.01-1.19-4.54-1.78c-2.13-0.83-4.66-0.56-6.56,0.7
			c0.5,0.58,0.26,1.53-0.27,2.09c-0.53,0.56-1.27,0.85-1.94,1.23c-1.4,0.8-2.57,2.1-2.94,3.66s0.19,3.39,1.54,4.27
			c-1.03,2.31-3.67,3.58-4.7,5.89c-0.28,0.62-0.42,1.3-0.57,1.97c-0.41,1.91-0.82,3.82-1.23,5.73c-0.09,0.4-0.16,0.84,0.05,1.19
			c0.47,0.74,1.72,0.15,1.96-0.69c0.23-0.84-0.09-1.73-0.06-2.61c0.02-0.87,0.71-1.89,1.55-1.65c0.69,0.2,0.9,1.06,0.91,1.78
			c0.02,1.93-0.58,3.87-1.68,5.45c-1.18,1.69-2.99,3.16-3.14,5.22c1.13,0.31,2.39-0.75,2.29-1.92c0.93,0.82,1.25,2.2,0.99,3.41
			c-0.26,1.21-1.02,2.28-1.94,3.1c-0.48,0.43-1.03,0.84-1.29,1.43c-0.26,0.59-0.06,1.45,0.56,1.61c0.38,0.1,0.77-0.08,1.11-0.28
			c2.47-1.47,3.82-4.22,5.66-6.44c1.84-2.21,4.94-4.03,7.49-2.7c0.19,0.1,0.39,0.23,0.48,0.43c0.1,0.22,0.05,0.49-0.01,0.72
			c-1.03,4.09-3.53,7.8-6.93,10.29c-0.78,0.57-1.66,1.15-1.95,2.07c-0.29,0.92,0.5,2.17,1.42,1.87c0.66-0.22,1.28-1.13,1.83-0.7
			c0.3,0.24,0.24,0.71,0.15,1.08c-0.68,2.83-1.35,5.66-2.03,8.5c-0.46,1.91-0.83,4.18,0.52,5.62c0.13,0.14,0.29,0.27,0.48,0.27
			c0.21,0,0.37-0.16,0.49-0.33c1.04-1.4,0.53-3.34,0.42-5.08c-0.09-1.52,0.17-3.06,0.77-4.46c0.48-1.13,1.22-2.2,2.3-2.78
			c1.08-0.57,2.56-0.51,3.4,0.38c1.23,1.3,0.56,3.45-0.44,4.93c-0.15,0.22-0.3,0.44-0.32,0.71c-0.05,0.62,0.76,1.03,1.35,0.83
			c0.59-0.2,0.97-0.78,1.25-1.33c1.81-3.51,1.82-7.67,3.17-11.37c0.19-0.52,0.42-1.05,0.83-1.42c0.7-0.63,1.74-0.67,2.68-0.67
			c1.86,0,3.72,0,5.58,0.01c0.69,0,1.4-0.01,2.01-0.32s1.07-1.04,0.84-1.69c-0.21-0.61-0.97-1.07-0.82-1.7
			c0.09-0.38,0.49-0.6,0.7-0.93c0.51-0.78-0.13-1.78-0.76-2.46c-2.55-2.75-5.47-5.14-8.66-7.09c-0.74-0.45-1.54-0.93-1.91-1.71
			c-0.37-0.78-0.05-1.96,0.81-2.1c0.78-0.13,1.94,0.46,2.17-0.3c0.16-0.53-0.5-0.92-1.03-1.07c-1.54-0.45-3.1-0.87-4.7-1.02
			c-4.9-0.47-9.98,1.73-12.99,5.63c-0.15-2.54,1.76-4.76,3.86-6.2s4.52-2.44,6.35-4.21c0.48-0.47,0.95-1.1,0.8-1.75
			c-0.14-0.63-0.79-1-1.4-1.21c-2.31-0.8-4.99-0.43-6.99,0.97c1.18-2.49,3.61-4.22,6.21-5.14c2.6-0.93,5.39-1.15,8.14-1.37
			c0.54-0.58,0.07-1.58-0.61-1.98c-0.68-0.4-1.52-0.48-2.21-0.88c-0.69-0.39-1.19-1.37-0.67-1.97c0.28-0.33,0.76-0.41,1.19-0.41
			c2.26,0,4.21,1.52,5.89,3.03c5.05,4.55,9.5,9.76,13.21,15.46c1.27-1.24,2.49-3.21,1.44-4.64c-0.51-0.7-1.42-0.99-2.06-1.58
			c-0.64-0.59-0.82-1.88,0-2.16c0.42-0.15,0.88,0.06,1.26,0.3c2.74,1.67,4.55,4.77,4.66,7.97c0.05,1.42-0.28,2.97-1.39,3.87
			c-0.47,0.38-1.05,0.62-1.45,1.08c-0.85,0.98-0.5,2.53,0.17,3.65c0.67,1.12,1.61,2.12,1.88,3.4c0.11,0.49,0.09,1.04-0.18,1.46
			c-0.51,0.8-1.74,0.83-2.53,0.32c-0.8-0.51-1.27-1.39-1.7-2.23c-0.02,2.41,0.91,4.92,2.86,6.33c1.95,1.41,4.97,1.38,6.58-0.41"/>
	</g>
	<g>
		<path class="st2" d="M98.37,125.96c-0.28,0.73-0.57,1.46-0.85,2.19c-0.11,0.29-0.23,0.58-0.41,0.82c-0.3,0.4-0.77,0.64-1.22,0.86
			c-0.66,0.33-1.31,0.65-1.97,0.98c1.29,0.06,2.6-0.35,3.62-1.14c-0.95,0.73-0.48,2.29-1.06,3.34c-0.47,0.85-1.57,1.23-1.96,2.12
			c-0.03,0.06-0.05,0.13-0.03,0.19c0.03,0.1,0.14,0.15,0.23,0.18c1.35,0.41,2.85-0.2,3.86-1.19c1.01-0.98,1.64-2.29,2.25-3.56
			c0.64-1.33,1.27-2.66,1.91-3.99"/>
	</g>
	<g>
		<path class="st2" d="M90.59,127.14c-0.94,0.72-1.88,1.43-2.81,2.15c-0.2,0.15-0.41,0.32-0.52,0.55c-0.28,0.58,0.27,1.29,0.91,1.42
			s1.27-0.16,1.85-0.45c1.61-0.83,3.11-1.87,4.46-3.08"/>
	</g>
	<g>
		<path class="st2" d="M101.08,131.27c0.2-0.75,1.46-0.64,1.79,0.06s-0.02,1.54-0.5,2.15s-1.11,1.12-1.45,1.81
			c-0.86,1.76,0.38,3.9-0.1,5.8c-0.48,1.89-2.46,2.93-4.23,3.73c-2.93,1.33-5.87,2.66-8.99,3.44c-2.44,0.61-4.95,0.87-7.46,1.07
			c-2.03,0.17-4.15,0.28-6.05-0.45c-1.91-0.73-3.55-2.55-3.41-4.59c0.02-0.32,0.1-0.66,0.32-0.89c0.37-0.38,1-0.32,1.52-0.21
			c4.35,0.92,8.48,3.49,12.89,2.96c3.31-0.4,6.32-2.68,7.59-5.76c-6.07-0.71-12.2,3.01-18.12,1.52c-0.61-0.15-1.32-0.53-1.28-1.15
			c0.03-0.5,0.54-0.81,1.01-0.99c2.07-0.78,4.37-0.51,6.56-0.17c0.55,0.09,1.14,0.18,1.66-0.04c0.41-0.17,0.72-0.52,1.08-0.79
			c1.2-0.91,2.86-0.92,4.35-0.67s2.97,0.7,4.47,0.58c1.5-0.12,3.09-1.04,3.37-2.53"/>
	</g>
	<g>
		<path class="st2" d="M66.85,104.37c0.45,3.44,0.91,6.89,0.99,10.36c0.04,1.83-0.02,3.69,0.4,5.48c0.28,1.17,0.75,2.28,1.23,3.38
			c1.04,2.42,2.09,4.85,3.56,7.04c1.47,2.18,3.4,4.13,5.8,5.2c0.24,0.11,0.52,0.27,0.48,0.53c-0.01,0.09-0.07,0.17-0.13,0.24
			c-0.77,0.97-2.24,1.13-3.41,0.71c-1.16-0.42-2.09-1.31-2.96-2.2c-1.57-1.61-3.08-3.29-4.33-5.17c-1.03-1.55-1.87-3.21-2.61-4.92
			c-1.24-2.86-2.19-5.88-2.35-9c-0.14-2.65,0.23-5.56-1.3-7.73"/>
	</g>
	<g>
		<path class="st2" d="M53.79,76.68c-4.43,8.54-7.68,17.65-10.91,26.71c-0.71,2-1.43,4.03-1.6,6.15c-0.36,4.52,1.81,8.9,1.84,13.43
			c0.01,2.81-0.75,5.84,0.66,8.27c0.53,0.91,1.33,1.66,1.78,2.61c0.85,1.8,0.28,3.91,0,5.89c-0.28,1.98-0.05,4.38,1.69,5.36
			c0.77-1.74,0.93-3.74,0.44-5.58c2.71,1.52,4.64,4.35,5.06,7.42c0.09,0.66,0.09,1.42-0.39,1.89c-0.27,0.27-0.67,0.42-0.81,0.78
			c-0.18,0.46,0.19,0.95,0.54,1.3c1.27,1.29,2.54,2.59,3.8,3.88c0.83,0.85,1.69,1.72,2.76,2.23c0.95,0.46,2.03,0.62,3,1.04
			c1.58,0.69,2.82,2.1,3.3,3.75c0.2,0.69,0.66,1.63,1.31,1.34c0.22-0.1,0.35-0.33,0.51-0.52c1.18-1.48,3.68-0.78,4.95,0.64
			c1.27,1.41,1.9,3.31,3.23,4.66c1.33,1.35,3.96,1.79,4.91,0.15c0.24-0.41,0.33-0.89,0.59-1.28c0.33-0.5,0.9-0.8,1.47-0.98
			c2.53-0.8,5.22,0.33,7.85,0.68c2.63,0.34,6.03-0.83,6.16-3.48c0.06-1.32-0.7-2.87,0.2-3.85c0.83-0.9,2.4-0.47,3.43-1.12
			c1.32-0.84,1.06-2.82,1.77-4.21c0.89-1.76,3.17-2.31,4.43-3.83c2.4-2.9-0.03-7.42,1.17-10.99c0.34-1.01,0.84-2.4-0.1-2.9
			c-0.98-0.52-1.88,0.8-2.21,1.86c-0.65,2.11-1.31,4.23-1.96,6.34c-0.17,0.56-0.67,1.27-1.18,0.97c-0.41-0.24-0.28-0.88-0.54-1.27
			c-0.29-0.45-1-0.42-1.43-0.1c-0.43,0.31-0.68,0.82-0.99,1.26c-2,2.93-6.11,3.23-9.39,4.6c-0.79,0.33-1.63,0.82-1.86,1.64
			c-0.35,1.2,0.87,2.4,2.11,2.52c1.25,0.13,2.44-0.47,3.54-1.06c1.39-0.73,2.77-1.46,4.16-2.19c0.79-0.41,1.82-0.81,2.5-0.24
			c0.79,0.66,0.29,2.05-0.6,2.58s-1.98,0.55-2.97,0.85c-0.99,0.3-2,1.14-1.85,2.16c0.12,0.79,0.91,1.58,0.49,2.27
			c-0.18,0.31-0.55,0.44-0.89,0.56c-1.52,0.52-3.04,1.04-4.56,1.56c-0.57,0.2-1.17,0.39-1.76,0.31c-0.95-0.14-1.69-0.96-2.63-1.12
			c-1.88-0.32-4.14,1.91-5.38,0.47c1.03-0.66,2.2-1.93,1.46-2.91c-0.16-0.21-0.4-0.37-0.47-0.62c-0.19-0.65,0.76-0.97,1.43-0.96
			c2.3,0.01,4.6,0.03,6.9,0.04c-6.36-1.44-12.58-3.51-18.53-6.17c0.39,0.61,0.78,1.21,1.18,1.82c-1.72-0.18-3.44-0.36-5.16-0.54
			c-0.19,0.98,0.55,1.93,1.44,2.37s1.91,0.5,2.9,0.64c3,0.43,5.88,1.69,8.23,3.62c0.15,1.38-1.31,2.51-2.69,2.52
			c-1.39,0-2.64-0.79-3.75-1.63c-6.66-5.05-10.99-12.5-15.15-19.74c0.84,3.53,1.26,7.15,1.25,10.77c-0.35-3.55-1.43-7.02-3.15-10.14
			c-1.05-1.9-2.34-3.68-3.06-5.73c-1.42-4.02-0.45-8.44-0.53-12.71c-0.1-5.21-1.78-10.28-1.88-15.49c-0.03-1.33,0.44-3.07,1.77-3.09
			c0.92-0.02,1.58,0.87,1.97,1.71c0.71,1.53,1.1,3.22,1.12,4.91c-1.74-6.56,0.01-13.47,1.75-20.03c-0.47,0.83-1.4,1.39-2.36,1.41
			c-0.41-2.19-0.53-4.43-0.36-6.65c0.23,1.25,0.43,2.62-0.19,3.73c-0.62,1.11-2.46,1.54-3.13,0.46c-0.23-0.37-0.27-0.82-0.27-1.25
			c-0.01-2.24,0.93-4.47,2.56-6.02"/>
	</g>
	<g>
		<path class="st1" d="M42.9,78.7c0.36-0.61,0.18-1.43-0.26-1.98c-0.44-0.55-1.11-0.88-1.77-1.13c-0.92-0.34-2.13-0.47-2.73,0.31
			c-0.29,0.38-0.35,0.88-0.35,1.36c0.02,2.69,1.78,5.04,3.63,6.99c0.23,0.24,0.47,0.48,0.78,0.59c0.31,0.11,0.71,0.03,0.87-0.26
			c0.11-0.19,0.08-0.43,0.14-0.65c0.1-0.35,0.42-0.59,0.57-0.92c0.27-0.58-0.03-1.24-0.2-1.85c-0.6-2.13,0.37-4.47-0.21-6.61"/>
	</g>
	<g>
		<path class="st1" d="M49.05,46.45c-0.48-0.09-0.54-0.82-0.22-1.19c0.32-0.37,0.82-0.51,1.25-0.75c0.43-0.24,0.82-0.72,0.65-1.18
			c-0.13-0.37-0.56-0.53-0.93-0.65c-0.93-0.3-1.87-0.6-2.8-0.89c-0.24-0.08-0.49-0.15-0.74-0.13c-0.5,0.05-0.88,0.5-0.99,0.99
			c-0.11,0.48-0.01,0.99,0.11,1.47c0.11,0.43,0.29,0.91,0.71,1.07c0.16,0.06,0.33,0.06,0.48,0.15c0.4,0.25,0.2,0.85,0.22,1.31
			c0.02,0.5,0.39,0.97,0.87,1.11c0.48,0.14,1.04-0.05,1.33-0.46"/>
	</g>
	<g>
		<path class="st1" d="M64.94,29.36c-0.4,0.34-0.39,1-0.08,1.43c0.3,0.43,0.82,0.66,1.33,0.77c-0.22,0.2-0.48,0.34-0.76,0.42
			c0.86,0.29,1.82,0.15,2.67-0.2c0.84-0.35,1.59-0.88,2.32-1.42c0.31-0.23,0.64-0.47,0.81-0.82c0.17-0.35,0.12-0.83-0.21-1.04
			c-0.25-0.15-0.57-0.1-0.84-0.2c-0.48-0.17-0.69-0.73-0.77-1.24c-0.08-0.5-0.1-1.05-0.42-1.45c-0.45-0.56-1.28-0.59-1.99-0.57
			c-0.25,0.01-0.52,0.02-0.71,0.18c-0.21,0.17-0.28,0.45-0.34,0.71c-0.19,0.9-0.37,1.81-0.54,2.72"/>
	</g>
	<g>
		<path class="st1" d="M106.04,48.69c-0.33-0.15-0.68-0.31-1.05-0.31s-0.76,0.21-0.85,0.57c-0.12,0.48,0.33,0.9,0.72,1.19
			c0.31,0.23,0.8,0.45,1.05,0.15c0.07-0.08,0.1-0.19,0.12-0.29c0.19-0.87-0.21-1.93-1.06-2.2"/>
	</g>
	<g>
		<path class="st1" d="M107.08,42.14c-0.55-0.14-1.25-0.13-1.52,0.36c-0.3,0.54,0.38,1.28,0.96,1.06c0.58-0.22,0.64-1.16,0.12-1.49"
			/>
	</g>
	<g>
		<g>
			<path class="st1" d="M98.65,42.99c0.8,0,0.81-1.25,0-1.25C97.84,41.74,97.84,42.99,98.65,42.99L98.65,42.99z"/>
		</g>
	</g>
	<g>
		<path class="st1" d="M96.4,44.61c-0.25,0.24-0.17,0.68,0.08,0.93c0.25,0.24,0.6,0.34,0.93,0.42c0.45,0.11,1.11,0.1,1.17-0.36
			c0.06-0.46-0.57-0.63-1.02-0.78c-0.47-0.15-0.87-0.47-1.14-0.88"/>
	</g>
	<g>
		<path class="st1" d="M93.52,35.18c-0.65-0.09-1.35-0.09-1.9,0.26c-0.55,0.35-0.85,1.16-0.47,1.69c0.22,0.31,0.61,0.45,0.98,0.49
			c0.77,0.08,1.64-0.32,1.87-1.07c0.23-0.74-0.49-1.67-1.24-1.45"/>
	</g>
	<g>
		<path class="st1" d="M89.43,29.73c-0.44,0.18-0.59,0.76-0.43,1.21s0.54,0.77,0.93,1.03c0.15,0.1,0.34,0.19,0.49,0.1
			c0.08-0.05,0.12-0.14,0.15-0.23c0.19-0.62-0.25-1.36-0.89-1.49"/>
	</g>
	<g>
		<path class="st1" d="M87.17,29.34c-0.84-0.23-1.82,0.19-2.22,0.97c-0.07,0.13-0.12,0.29-0.04,0.42c0.05,0.09,0.15,0.13,0.24,0.17
			c0.54,0.23,1.25,0.43,1.65,0c0.28-0.31,0.24-0.82,0.01-1.17c-0.23-0.35-0.6-0.58-0.96-0.8"/>
	</g>
	<g>
		<path class="st1" d="M82.43,23.88c-0.41-0.05-0.81,0.27-0.92,0.67c-0.11,0.4,0.05,0.84,0.35,1.13c0.25,0.25,0.62,0.41,0.97,0.36
			c0.35-0.05,0.68-0.35,0.69-0.71s-0.32-0.71-0.68-0.65"/>
	</g>
	<g>
		<g>
			<path class="st1" d="M78.43,26.24c-0.42,0.4-0.78,0.89-1.02,1.42c-0.19,0.42-0.3,0.85-0.09,1.29c0.19,0.4,0.69,0.65,1.12,0.51
				c0.25-0.08,0.47-0.32,0.46-0.6c-0.01-0.17,0-0.33,0.02-0.5c-0.01,0.06-0.01,0.11-0.02,0.17c0.02-0.11,0.04-0.22,0.07-0.33
				c0.01-0.05,0.03-0.1,0.05-0.15c0.02-0.05,0.1-0.22,0.01-0.05c0.05-0.1,0.09-0.19,0.15-0.28c0.03-0.05,0.06-0.1,0.1-0.15
				c0.01-0.02,0.03-0.04,0.04-0.06c-0.09,0.15-0.04,0.05-0.01,0.01c0.11-0.13,0.18-0.27,0.18-0.44c0-0.15-0.07-0.34-0.18-0.44
				c-0.23-0.21-0.66-0.27-0.88,0c-0.52,0.62-0.81,1.41-0.77,2.22c0.15-0.2,0.31-0.4,0.46-0.6c-0.02,0.01-0.04,0.01-0.06,0.01
				c0.06-0.01,0.11-0.01,0.17-0.02c-0.03,0-0.05,0-0.08,0c0.06,0.01,0.11,0.01,0.17,0.02c-0.11-0.02,0.13,0.08,0.04,0.02
				c-0.05-0.03-0.03-0.02,0.06,0.05c-0.03-0.03-0.03-0.03,0.01,0.02c0.09,0.12-0.04-0.11,0.02,0.04c0.05,0.11,0-0.03,0-0.06
				c0.01,0.06,0.01,0.11,0.02,0.17c0-0.05,0-0.1,0-0.15c-0.01,0.06-0.01,0.11-0.02,0.17c0-0.03,0.08-0.26,0.07-0.26
				c0.01,0.02-0.06,0.14,0,0.01c0.02-0.03,0.03-0.07,0.05-0.1c0.07-0.14,0.15-0.28,0.23-0.41c0.04-0.06,0.08-0.12,0.12-0.18
				c0.01-0.02,0.03-0.04,0.04-0.06c-0.06,0.07-0.07,0.09-0.04,0.05c0.03-0.03,0.05-0.07,0.08-0.1c0.1-0.12,0.21-0.23,0.32-0.34
				c0.24-0.23,0.24-0.66,0-0.88C79.06,26,78.69,26,78.43,26.24L78.43,26.24z"/>
		</g>
	</g>
	<g>
		<path class="st1" d="M73.07,33.62c1.63,0.18,3.22,0.74,4.61,1.63"/>
	</g>
	<g>
		<path class="st1" d="M71.49,35.51c-0.24,0.41-0.23,0.94,0.01,1.35s0.72,0.65,1.19,0.63c-0.32-0.81-0.82-1.54-1.47-2.12"/>
	</g>
	<g>
		<g>
			<path class="st1" d="M61.86,29.01c0.8,0,0.81-1.25,0-1.25C61.05,27.76,61.05,29.01,61.86,29.01L61.86,29.01z"/>
		</g>
	</g>
	<g>
		<g>
			<path class="st1" d="M54.13,26.58c-0.08,0.08-0.15,0.17-0.22,0.26c-0.04,0.05-0.08,0.11-0.11,0.17
				c-0.11,0.21-0.17,0.41-0.18,0.65c-0.01,0.11,0.01,0.23,0.03,0.34c0.02,0.11,0.07,0.21,0.12,0.31c0.02,0.04,0.06,0.08,0.09,0.12
				c0.03,0.04,0.06,0.08,0.09,0.11c0.05,0.05,0.11,0.09,0.17,0.13c0.02,0.01,0.04,0.03,0.06,0.04c0.18,0.09,0.35,0.14,0.55,0.14
				c0.1,0,0.2-0.01,0.29-0.03c0.09-0.02,0.18-0.06,0.26-0.1c0.08-0.04,0.15-0.1,0.22-0.16c0.03-0.03,0.06-0.07,0.09-0.1
				c0.03-0.03,0.06-0.07,0.08-0.11c0.12-0.24,0.16-0.52,0.07-0.78c-0.09-0.26-0.24-0.47-0.42-0.67c-0.15-0.16-0.32-0.3-0.51-0.43
				c-0.07-0.05-0.15-0.07-0.23-0.07c-0.08-0.02-0.17-0.01-0.25,0.01c-0.14,0.04-0.3,0.15-0.37,0.29c-0.08,0.15-0.12,0.32-0.06,0.48
				c0.02,0.05,0.04,0.1,0.06,0.15c0.06,0.09,0.13,0.17,0.22,0.22c0.04,0.03,0.08,0.05,0.11,0.08c-0.04-0.03-0.08-0.07-0.13-0.1
				c0.14,0.11,0.26,0.23,0.37,0.37c-0.03-0.04-0.07-0.08-0.1-0.13c0.06,0.07,0.11,0.15,0.15,0.24c-0.02-0.05-0.04-0.1-0.06-0.15
				c0.02,0.04,0.03,0.09,0.04,0.13c-0.01-0.06-0.01-0.11-0.02-0.17c0,0.04,0.01,0.07,0,0.11c0.01-0.06,0.01-0.11,0.02-0.17
				c0,0.03-0.01,0.05-0.02,0.07c0.02-0.05,0.04-0.1,0.06-0.15c-0.01,0.03-0.02,0.05-0.04,0.07c0.03-0.04,0.07-0.08,0.1-0.13
				c-0.02,0.02-0.04,0.04-0.06,0.06c0.04-0.03,0.08-0.07,0.13-0.1c-0.03,0.02-0.06,0.04-0.09,0.05c0.05-0.02,0.1-0.04,0.15-0.06
				c-0.04,0.02-0.08,0.03-0.12,0.03c0.06-0.01,0.11-0.01,0.17-0.02c-0.05,0.01-0.11,0.01-0.16,0c0.06,0.01,0.11,0.01,0.17,0.02
				c-0.05-0.01-0.09-0.02-0.14-0.04c0.05,0.02,0.1,0.04,0.15,0.06c-0.04-0.02-0.07-0.04-0.1-0.06c0.04,0.03,0.08,0.07,0.13,0.1
				c-0.03-0.02-0.05-0.04-0.07-0.07c0.03,0.04,0.07,0.08,0.1,0.13c-0.03-0.03-0.05-0.07-0.06-0.11c0.02,0.05,0.04,0.1,0.06,0.15
				c-0.02-0.05-0.03-0.1-0.04-0.15c0.01,0.06,0.01,0.11,0.02,0.17c-0.01-0.06-0.01-0.12,0-0.19c-0.01,0.06-0.01,0.11-0.02,0.17
				c0.01-0.08,0.03-0.15,0.06-0.23c-0.02,0.05-0.04,0.1-0.06,0.15c0.04-0.09,0.09-0.17,0.14-0.25c-0.03,0.04-0.07,0.08-0.1,0.13
				c0.03-0.04,0.07-0.08,0.11-0.12c0.11-0.11,0.18-0.28,0.18-0.44c0-0.15-0.07-0.34-0.18-0.44c-0.12-0.11-0.28-0.19-0.44-0.18
				C54.4,26.41,54.25,26.46,54.13,26.58L54.13,26.58z"/>
		</g>
	</g>
	<g>
		<g>
			<path class="st1" d="M53.07,35.06c-0.04-0.04-0.09-0.09-0.13-0.13c-0.06-0.06-0.12-0.1-0.2-0.13c-0.07-0.04-0.15-0.06-0.24-0.05
				c-0.09,0-0.17,0.01-0.24,0.05c-0.08,0.03-0.14,0.07-0.2,0.13c-0.03,0.04-0.07,0.08-0.1,0.13c-0.06,0.1-0.08,0.2-0.09,0.32
				c0.01,0.06,0.01,0.11,0.02,0.17c0.03,0.11,0.08,0.2,0.16,0.28c0.04,0.04,0.09,0.09,0.13,0.13c0.06,0.06,0.12,0.1,0.2,0.13
				c0.07,0.04,0.15,0.06,0.24,0.05c0.09,0,0.17-0.01,0.24-0.05c0.08-0.03,0.14-0.07,0.2-0.13c0.03-0.04,0.07-0.08,0.1-0.13
				c0.06-0.1,0.08-0.2,0.09-0.32c-0.01-0.06-0.01-0.11-0.02-0.17C53.2,35.23,53.15,35.14,53.07,35.06L53.07,35.06z"/>
		</g>
	</g>
	<g>
		<g>
			<path class="st1" d="M53.66,39.11c0.13,0.04,0.26,0.09,0.4,0.13c0.08,0.03,0.17,0.03,0.25,0.01c0.08,0,0.16-0.03,0.23-0.07
				c0.07-0.04,0.13-0.09,0.18-0.16c0.06-0.06,0.09-0.13,0.11-0.21c0.01-0.06,0.01-0.11,0.02-0.17c0-0.11-0.03-0.22-0.09-0.32
				c-0.03-0.04-0.07-0.08-0.1-0.13c-0.08-0.08-0.17-0.13-0.28-0.16c-0.13-0.04-0.26-0.09-0.4-0.13c-0.08-0.03-0.17-0.03-0.25-0.01
				c-0.08,0-0.16,0.03-0.23,0.07c-0.07,0.04-0.13,0.09-0.18,0.16c-0.06,0.06-0.09,0.13-0.11,0.21c-0.01,0.06-0.01,0.11-0.02,0.17
				c0,0.11,0.03,0.22,0.09,0.32c0.03,0.04,0.07,0.08,0.1,0.13C53.46,39.03,53.55,39.08,53.66,39.11L53.66,39.11z"/>
		</g>
	</g>
	<g>
		<path class="st1" d="M50.21,55.69c0.06,0.25,0.22,0.48,0.44,0.61c-0.18-0.12-0.36-0.23-0.53-0.35"/>
	</g>
	<g>
		<path class="st1" d="M55,51.86c1.04-1.01,2.08-2.02,3.12-3.03c0.17,0.5-0.03,1.07-0.36,1.48c-0.33,0.42-0.77,0.72-1.19,1.04
			c-0.98,0.75-1.88,1.66-2.37,2.8c-0.31,0.71-0.54,1.59-1.26,1.87c0.52-2.11,1.57-4.1,3.03-5.71"/>
	</g>
	<g>
		<g>
			<path class="st1" d="M41.31,44.55c-0.26,0.07-0.53,0.13-0.79,0.2c-0.08,0.02-0.15,0.06-0.21,0.11c-0.07,0.04-0.12,0.1-0.16,0.18
				c-0.05,0.07-0.07,0.15-0.07,0.23c-0.02,0.08-0.01,0.17,0.01,0.25c0.05,0.15,0.14,0.3,0.29,0.37c0.15,0.08,0.31,0.1,0.48,0.06
				c0.26-0.07,0.53-0.13,0.79-0.2c0.08-0.02,0.15-0.06,0.21-0.11c0.07-0.04,0.12-0.1,0.16-0.18c0.05-0.07,0.07-0.15,0.07-0.23
				c0.02-0.08,0.01-0.17-0.01-0.25c-0.05-0.15-0.14-0.3-0.29-0.37C41.64,44.53,41.47,44.51,41.31,44.55L41.31,44.55z"/>
		</g>
	</g>
	<g>
		<path class="st1" d="M37.13,58.47c-0.21-0.07-0.42,0.18-0.39,0.41c0.03,0.22,0.19,0.4,0.36,0.55c0.26,0.25,0.53,0.5,0.88,0.58
			c0.35,0.08,0.78-0.08,0.86-0.43c0.15-0.6-0.7-0.9-1.31-0.92"/>
		<g>
			<path class="st1" d="M37.3,57.86c-0.42-0.11-0.85,0.1-1.06,0.47c-0.19,0.36-0.16,0.79,0.07,1.13c0.16,0.23,0.36,0.44,0.58,0.62
				c0.25,0.22,0.51,0.4,0.83,0.5c0.58,0.19,1.26-0.02,1.59-0.53c0.32-0.48,0.18-1.15-0.25-1.5c-0.43-0.35-0.98-0.5-1.53-0.52
				c-0.33-0.01-0.64,0.3-0.62,0.62c0.02,0.35,0.27,0.61,0.62,0.62c0.08,0,0.16,0.01,0.23,0.02c-0.06-0.01-0.11-0.01-0.17-0.02
				c0.19,0.03,0.37,0.07,0.55,0.14c-0.05-0.02-0.1-0.04-0.15-0.06c0.06,0.02,0.11,0.05,0.16,0.08c0.02,0.01,0.04,0.02,0.06,0.04
				c0.02,0.01,0.12,0.08,0.01,0.01c-0.1-0.08,0.03,0.04,0.05,0.06c-0.13-0.13-0.08-0.11-0.05-0.06c0.02,0.02,0.03,0.05,0.04,0.07
				c-0.02-0.05-0.04-0.1-0.06-0.15c0.02,0.04,0.03,0.08,0.03,0.12c-0.01-0.06-0.01-0.11-0.02-0.17c0.01,0.04,0.01,0.09,0,0.13
				c0.01-0.06,0.01-0.11,0.02-0.17c-0.01,0.05-0.02,0.1-0.04,0.15c0.02-0.05,0.04-0.1,0.06-0.15c-0.01,0.03-0.04,0.06-0.05,0.09
				c0.07-0.09,0.09-0.11,0.05-0.07c-0.01,0.01-0.02,0.02-0.04,0.04c-0.07,0.07,0.15-0.1,0.02-0.02c-0.03,0.02-0.06,0.03-0.09,0.05
				c0.05-0.02,0.1-0.04,0.15-0.06c-0.07,0.03-0.14,0.05-0.21,0.06c0.06-0.01,0.11-0.01,0.17-0.02c-0.07,0.01-0.14,0.01-0.22,0
				c0.06,0.01,0.11,0.01,0.17,0.02c-0.1-0.01-0.19-0.04-0.27-0.08c0.05,0.02,0.1,0.04,0.15,0.06c-0.1-0.04-0.19-0.1-0.28-0.16
				c-0.04-0.03-0.09-0.09,0.03,0.02c-0.02-0.02-0.04-0.03-0.05-0.04c-0.04-0.04-0.09-0.08-0.13-0.12c-0.08-0.07-0.15-0.14-0.22-0.22
				c-0.02-0.02-0.04-0.04-0.06-0.06c-0.04-0.04-0.04-0.09,0.02,0.03c-0.03-0.05-0.06-0.09-0.08-0.14c0.02,0.05,0.04,0.1,0.06,0.15
				c-0.02-0.05-0.04-0.1-0.04-0.16c0.01,0.06,0.01,0.11,0.02,0.17c0-0.03,0-0.06,0-0.08c-0.01,0.06-0.01,0.11-0.02,0.17
				c0.01-0.04,0.02-0.07,0.03-0.11c-0.02,0.05-0.04,0.1-0.06,0.15c0.03-0.06,0.1-0.13-0.02,0.01c0.04-0.04,0.02-0.03-0.07,0.04
				c0.01-0.01,0.03-0.02,0.05-0.03c-0.05,0.02-0.1,0.04-0.15,0.06c0.03-0.01,0.05-0.02,0.07-0.02c-0.06,0.01-0.11,0.01-0.17,0.02
				c0.02,0,0.03,0,0.05,0c-0.06-0.01-0.11-0.01-0.17-0.02c0.02,0,0.04,0.01,0.05,0.01c0.32,0.09,0.69-0.11,0.77-0.44
				C37.81,58.3,37.64,57.96,37.3,57.86L37.3,57.86z"/>
		</g>
	</g>
	<g>
		<g>
			<path class="st1" d="M33.44,66.87c0.02,0.04,0.04,0.07,0.06,0.11c0.05,0.07,0.1,0.14,0.17,0.21c0.06,0.06,0.14,0.11,0.21,0.16
				c0.03,0.02,0.07,0.04,0.11,0.06c0.08,0.04,0.16,0.08,0.25,0.1c0.09,0.02,0.18,0.03,0.27,0.04c0.13,0.01,0.27-0.01,0.4-0.04
				c0.11-0.03,0.2-0.08,0.28-0.16c0.06-0.06,0.1-0.12,0.13-0.2c0.04-0.07,0.06-0.15,0.05-0.24c0-0.11-0.03-0.22-0.09-0.32
				c-0.06-0.08-0.12-0.17-0.19-0.23c-0.05-0.04-0.11-0.1-0.18-0.13c-0.06-0.04-0.14-0.06-0.2-0.09c-0.05-0.02-0.1-0.03-0.15-0.04
				c-0.1-0.01-0.2-0.03-0.3-0.03c-0.2,0.02-0.4,0.06-0.57,0.17c-0.16,0.1-0.32,0.25-0.4,0.42c-0.05,0.07-0.07,0.15-0.07,0.23
				c-0.02,0.08-0.01,0.17,0.01,0.25c0.04,0.14,0.15,0.3,0.29,0.37c0.15,0.08,0.32,0.12,0.48,0.06c0.15-0.05,0.31-0.14,0.37-0.29
				c0.01-0.03,0.03-0.06,0.05-0.09c-0.03,0.04-0.07,0.08-0.1,0.13c0.02-0.03,0.05-0.06,0.08-0.08c-0.04,0.03-0.08,0.07-0.13,0.1
				c0.04-0.03,0.07-0.05,0.11-0.07c-0.05,0.02-0.1,0.04-0.15,0.06c0.05-0.02,0.1-0.04,0.16-0.04c-0.06,0.01-0.11,0.01-0.17,0.02
				c0.05-0.01,0.11-0.01,0.16,0c-0.06-0.01-0.11-0.01-0.17-0.02c0.05,0.01,0.1,0.02,0.15,0.04c-0.05-0.02-0.1-0.04-0.15-0.06
				c0.04,0.02,0.07,0.04,0.1,0.06c-0.04-0.03-0.08-0.07-0.13-0.1c0.03,0.02,0.06,0.05,0.08,0.08c-0.03-0.04-0.07-0.08-0.1-0.13
				c0.01,0.01,0.01,0.02,0.02,0.03c0.12-0.31,0.25-0.61,0.37-0.92c-0.03,0.01-0.06,0.01-0.09,0.02c0.06-0.01,0.11-0.01,0.17-0.02
				c-0.05,0.01-0.11,0.01-0.16,0c0.06,0.01,0.11,0.01,0.17,0.02c-0.06-0.01-0.12-0.03-0.18-0.05c0.05,0.02,0.1,0.04,0.15,0.06
				c-0.05-0.02-0.1-0.05-0.15-0.09c0.04,0.03,0.08,0.07,0.13,0.1c-0.04-0.03-0.08-0.07-0.11-0.11c0.03,0.04,0.07,0.08,0.1,0.13
				c-0.03-0.04-0.05-0.08-0.07-0.12c-0.04-0.07-0.09-0.13-0.16-0.18c-0.06-0.06-0.13-0.09-0.21-0.11c-0.08-0.03-0.17-0.03-0.25-0.01
				c-0.08,0-0.16,0.03-0.23,0.07c-0.13,0.09-0.25,0.21-0.29,0.37c-0.01,0.06-0.01,0.11-0.02,0.17
				C33.36,66.67,33.39,66.77,33.44,66.87L33.44,66.87z"/>
		</g>
	</g>
	<g>
		<g>
			<path class="st1" d="M30.95,73.73c0.2,0.25,0.4,0.49,0.6,0.74c0.08,0.08,0.17,0.13,0.28,0.16c0.11,0.03,0.22,0.03,0.33,0
				c0.19-0.06,0.38-0.17,0.52-0.32c0.07-0.08,0.14-0.16,0.18-0.26c0.05-0.11,0.08-0.17,0.09-0.28c0.02-0.14,0-0.29-0.08-0.4
				c-0.02-0.03-0.05-0.06-0.07-0.09c-0.05-0.06-0.1-0.13-0.16-0.18c-0.08-0.07-0.16-0.14-0.25-0.19c-0.05-0.03-0.1-0.06-0.15-0.08
				c-0.1-0.05-0.2-0.09-0.3-0.12c-0.15-0.05-0.34-0.02-0.48,0.06c-0.13,0.08-0.25,0.22-0.29,0.37c-0.04,0.16-0.03,0.34,0.06,0.48
				c0.09,0.14,0.21,0.24,0.37,0.29c0.04,0.01,0.07,0.02,0.11,0.04c-0.05-0.02-0.1-0.04-0.15-0.06c0.08,0.03,0.16,0.08,0.23,0.13
				c-0.04-0.03-0.08-0.07-0.13-0.1c0.07,0.05,0.13,0.12,0.19,0.19c-0.03-0.04-0.07-0.08-0.1-0.13c0.01,0.01,0.02,0.02,0.03,0.04
				c-0.02-0.16-0.04-0.32-0.06-0.48c0,0.01-0.01,0.03-0.01,0.04c0.02-0.05,0.04-0.1,0.06-0.15c-0.02,0.04-0.04,0.08-0.07,0.12
				c0.03-0.04,0.07-0.08,0.1-0.13c-0.03,0.04-0.06,0.07-0.1,0.1c0.04-0.03,0.08-0.07,0.13-0.1c-0.03,0.03-0.07,0.05-0.11,0.06
				c0.05-0.02,0.1-0.04,0.15-0.06c-0.02,0.01-0.03,0.01-0.05,0.02c0.2,0.05,0.41,0.11,0.61,0.16c-0.2-0.25-0.4-0.49-0.6-0.74
				c-0.06-0.06-0.12-0.1-0.2-0.13c-0.07-0.04-0.15-0.06-0.24-0.05c-0.15,0-0.34,0.07-0.44,0.18c-0.11,0.12-0.19,0.28-0.18,0.44
				c0.01,0.06,0.01,0.11,0.02,0.17C30.82,73.56,30.88,73.65,30.95,73.73L30.95,73.73z"/>
		</g>
	</g>
	<g>
		<path class="st2" d="M81.24,128.51c-1.44-0.07-2.89-0.15-4.33-0.22c-0.2-0.01-0.41-0.02-0.59,0.08c-0.37,0.21-0.36,0.79-0.08,1.11
			c0.28,0.32,0.71,0.45,1.12,0.56c2.1,0.55,4.24,0.99,6.39,1.31c0.51,0.08,1.23-0.03,1.22-0.54c0-0.19-0.13-0.36-0.27-0.5
			c-1.37-1.3-4.01-0.59-5.14-2.11"/>
	</g>
	<g>
		<path class="st2" d="M81.24,129.45c-1.43,0.39-3.03,0.15-4.28-0.65c2.02,0,4.03,0.42,5.88,1.23"/>
	</g>
	<g>
		<path class="st1" d="M86.21,169.66c1.52-0.53,3.07-1.05,4.67-1.09c1.61-0.03,3.31,0.5,4.31,1.76c0.47,0.59,0.78,1.33,1.41,1.75
			c0.15,0.1,0.32,0.19,0.38,0.36c0.05,0.16-0.01,0.33-0.08,0.48c-0.95,1.91-3.34,2.51-5.46,2.78c-1.03,0.13-2.21,0.19-2.97-0.52
			c-0.39-0.36-0.65-0.91-1.17-1.04c-0.32-0.08-0.66,0.04-0.98-0.03c-0.78-0.17-0.95-1.18-0.94-1.98c0-0.65,0-1.3,0-1.95
			c0-0.4,0-0.82,0.18-1.17c0.24-0.49,0.75-0.77,1.16-1.13c0.41-0.36,0.73-0.97,0.45-1.43"/>
	</g>
	<g>
		<path class="st1" d="M81.3,168.96c-0.51,1.04-0.64,2.27-0.36,3.4c0.1,0.4,0.5,0.87,0.83,0.63c0.09-0.06,0.14-0.16,0.19-0.26
			c0.34-0.68,0.69-1.39,0.72-2.15c0.03-0.76-0.35-1.59-1.07-1.84"/>
	</g>
	<g>
		<path class="st1" d="M81.43,175.15c-0.36,0.68-0.31,1.56,0.13,2.19c0.17,0.24,0.45,0.46,0.73,0.37c0.37-0.12,0.38-0.63,0.32-1.01
			c-0.17-1-0.38-2-0.64-2.98"/>
	</g>
	<g>
		<path class="st1" d="M71.09,167.73c-0.54-0.42-1.36,0.3-1.28,0.98c0.08,0.68,0.69,1.16,1.27,1.52c0.17,0.1,0.36,0.2,0.56,0.17
			c0.28-0.05,0.45-0.34,0.51-0.62c0.21-0.96-0.45-2.03-1.4-2.28"/>
	</g>
	<g>
		<path class="st1" d="M74.9,170.16c-0.92,0.06-1.55,1.23-1.11,2.03c0.44,0.81,1.74,0.92,2.33,0.21s0.23-1.95-0.63-2.27"/>
	</g>
	<g>
		<path class="st1" d="M69.35,171.22c-0.57-0.37-1.51-0.65-1.77-0.02c-0.18,0.44,0.22,0.9,0.58,1.22c0.52,0.45,1.36,0.88,1.79,0.35
			c0.44-0.55-0.22-1.29-0.81-1.68"/>
	</g>
	<g>
		<path class="st1" d="M62.64,176.92c-0.42,0.39-0.65,0.96-0.63,1.52c0.01,0.44,0.2,0.89,0.56,1.13c0.37,0.24,0.93,0.18,1.16-0.19
			c0.24-0.37-0.04-0.97-0.47-0.95"/>
	</g>
	<g>
		<path class="st1" d="M63.43,163.28c-0.44,0.04-0.86,0.33-1.04,0.73s-0.14,0.91,0.11,1.27c0.13,0.19,0.32,0.34,0.51,0.48
			c0.29,0.21,0.61,0.39,0.97,0.44c0.2,0.03,0.42,0.01,0.58-0.13c0.1-0.09,0.16-0.23,0.21-0.36c0.27-0.76,0.26-1.62-0.03-2.38"/>
	</g>
	<g>
		<path class="st1" d="M58.52,169.57c-0.12-0.25-0.51-0.25-0.72-0.06c-0.2,0.19-0.27,0.49-0.32,0.76c-0.02,0.11-0.04,0.22-0.01,0.33
			c0.06,0.22,0.3,0.33,0.51,0.41c0.2,0.08,0.41,0.15,0.61,0.09c0.21-0.07,0.35-0.28,0.4-0.49s0.01-0.44-0.02-0.66"/>
	</g>
	<g>
		<path class="st1" d="M53.09,154.56c-0.3,0.01-0.52,0.3-0.61,0.59c-0.14,0.42-0.09,0.93,0.21,1.26s0.88,0.4,1.19,0.08
			c0.11-0.11,0.23-0.28,0.38-0.25c0.07,0.01,0.13,0.07,0.18,0.11c0.49,0.41,1.21,0.53,1.8,0.28"/>
	</g>
	<g>
		<path class="st1" d="M47.22,148.58c-0.16-0.33-0.66-0.36-0.95-0.13c-0.28,0.23-0.39,0.62-0.42,0.98
			c-0.03,0.36,0.01,0.74,0.22,1.04c0.29,0.41,0.83,0.55,1.34,0.61c0.09,0.01,0.18,0.02,0.26-0.03c0.08-0.05,0.11-0.15,0.13-0.25
			c0.09-0.38,0.11-0.78,0.06-1.17"/>
	</g>
	<g>
		<path class="st1" d="M40.96,153.33c-0.12,0.76,0.46,1.55,1.21,1.68c0.08,0.01,0.17,0.02,0.24-0.02c0.14-0.07,0.18-0.25,0.19-0.4
			c0.11-0.9,0.21-1.8,0.32-2.71"/>
	</g>
	<g>
		<path class="st1" d="M39.88,143.67c-0.5-0.18-0.86-0.62-1.15-1.07c-0.2-0.31-0.45-0.67-0.82-0.69c-0.17-0.01-0.32,0.06-0.47,0.13
			c-0.43,0.19-0.85,0.38-1.28,0.56c-0.04,0.02-0.09,0.05-0.1,0.09c-0.01,0.04,0.02,0.08,0.04,0.11c0.25,0.37,0.5,0.75,0.88,0.98
			c0.38,0.22,0.83,0.28,1.22,0.48c0.46,0.24,0.82,0.68,1.32,0.81c0.18,0.04,0.43-0.01,0.44-0.2c0-0.08-0.05-0.15-0.09-0.21
			c-0.17-0.23-0.34-0.46-0.51-0.69"/>
	</g>
	<g>
		<path class="st1" d="M50.25,148.44c-0.19,0.05-0.39,0.01-0.58,0.05c-0.19,0.04-0.39,0.18-0.38,0.37c0.01,0.12,0.09,0.22,0.17,0.31
			c0.57,0.63,1.26,1.32,2.11,1.27"/>
	</g>
	<g>
		<path class="st1" d="M39.5,95.03c-0.41,0.24-0.82,0.48-1.23,0.72c-0.2,0.12-0.42,0.29-0.39,0.51c0.04,0.28,0.47,0.32,0.66,0.11
			c0.19-0.21,0.19-0.52,0.16-0.79c-0.03-0.28-0.08-0.57,0.03-0.83"/>
	</g>
	<g>
		<path class="st1" d="M36.81,88.23c-0.21-0.35-0.64-0.53-1.04-0.51s-0.79,0.23-1.09,0.5c-0.92,0.84-1.05,2.45-0.16,3.32
			c0.63,0.62,1.58,0.77,2.46,0.8c0.42,0.01,0.86,0,1.22-0.21c0.76-0.44,0.81-1.58,0.39-2.36c-0.42-0.78-1.16-1.31-1.79-1.93"/>
	</g>
	<g>
		<path class="st1" d="M37.44,103.13c-0.51-0.27-1.18-0.2-1.62,0.16c-0.22,0.18-0.4,0.46-0.36,0.74c0.03,0.23,0.2,0.42,0.35,0.59
			c0.38,0.42,0.82,0.87,1.39,0.93c0.12,0.01,0.24,0,0.34-0.05c0.68-0.32-0.08-1.7,0.6-2.03"/>
	</g>
	<g>
		<path class="st1" d="M32.26,109.81c-0.4-0.15-0.94-0.26-1.2,0.08c-0.11,0.15-0.13,0.34-0.15,0.52c-0.06,0.6-0.08,1.32,0.4,1.68
			c0.29,0.22,0.68,0.24,1.05,0.25c0.3,0.01,0.67-0.03,0.79-0.3c0.09-0.19,0.01-0.42-0.06-0.61c-0.18-0.46-0.35-0.91-0.53-1.37"/>
	</g>
	<g>
		<path class="st1" d="M38.5,114.83c-0.36-0.17-0.73-0.35-1.12-0.38c-0.4-0.03-0.83,0.11-1.04,0.46c-0.38,0.64,0.19,1.6-0.31,2.15
			c-0.39,0.44-1.28,0.4-1.37,0.97c-0.03,0.18,0.04,0.35,0.12,0.51c0.21,0.4,0.49,0.76,0.84,1.05c0.25,0.21,0.55,0.39,0.69,0.69
			c0.13,0.28,0.1,0.61,0.16,0.91c0.11,0.64,0.62,1.18,1.22,1.43c0.6,0.26,1.28,0.27,1.93,0.15c0.31-0.06,0.68-0.22,0.69-0.54"/>
	</g>
	<g>
		<path class="st1" d="M39,114.79c0.2-0.05,0.41-0.05,0.61,0.02c0.41,0.13,0.72,0.48,0.9,0.87c0.18,0.39,0.24,0.82,0.3,1.24
			c0.06,0.44,0.13,0.87,0.19,1.31c0.04,0.3,0.09,0.6,0.06,0.9c-0.09,1.24-1.23,2.1-2.26,2.8"/>
	</g>
</g>
<g id="SLEEVE-OUT">
</g>
<g id="SLEEVE">
</g>
<g id="Layer_5">
</g>
<g id="Layer_4">
	<g>
		<polygon class="st3" points="131.03,88.29 112.11,89.52 113.8,115.55 135.99,111.01 		"/>
		<path class="st4" d="M77.18,88.1l39.77-3.37c0,0-9.38,20.19,4.05,33.66c0.09-0.24-45.45,3.73-45.45,3.73L77.18,88.1z"/>
		<path class="st5" d="M130.66,79.22c-0.24,0.24-11.61,12.07-7.06,24.22c5.37,9.37,9.55,11.93,16.51,12
			c6.96,0.07,17.76-0.77,17.76-0.77s10.03,1.5,12.05,0.6s4.47-1.85,4.96-8.01c-0.01-0.11,9.07-4.37,1.73-10.7
			c-0.11,0.01,8.08-8.73-1.03-10.56c-0.18,0.24,6.32-8.29-5-9.84c-2.42-0.55-27.19,3.16-27.19,3.16s2.23-10.12,0.83-14.44
			s-3.68-8.73-7.06-8.4c-3.38,0.33-3.76,1.55-3.12,4.89c0.64,3.34,0.94,8.22,0.94,8.22S133.03,76.89,130.66,79.22z"/>
	</g>
</g>
</svg>
