<?xml version="1.0" encoding="utf-8"?>
<!-- Generator: Adobe Illustrator 26.0.2, SVG Export Plug-In . SVG Version: 6.00 Build 0)  -->
<svg version="1.1" id="Layer_1" xmlns="http://www.w3.org/2000/svg" xmlns:xlink="http://www.w3.org/1999/xlink" x="0px" y="0px"
	 viewBox="0 0 1000 1000" style="enable-background:new 0 0 1000 1000;" xml:space="preserve">
<style type="text/css">
	.st0{fill:#72BF44;stroke:#000000;stroke-width:1.2709;stroke-miterlimit:10;}
	.st1{font-family:'Creepster';}
	.st2{font-size:192.516px;}
	.st3{fill:#00B4F3;stroke:#000000;stroke-width:1.2709;stroke-miterlimit:10;}
	.st4{fill:#00B4F3;}
</style>
<g>
	<text transform="matrix(1 0 0 1 40.9887 547.6215)" class="st0 st1 st2">Rickommend</text>
</g>
<g id="SLEEVE-OUT">
</g>
<g id="SLEEVE">
</g>
<g id="Layer_5">
</g>
<g>
	<text transform="matrix(1 0 0 1 51.0697 543.8295)" class="st3 st1 st2">Rickommend</text>
</g>
<g>
	<polygon class="st4" points="251.5,531.2 285.5,560.4 283.1,581.8 325.1,595.3 283.9,592.9 272,569.9 279.2,559.6 	"/>
	<g>
		<image style="overflow:visible;" width="146" height="137" xlink:href="1028D084.png"  transform="matrix(1 0 0 1 213 494)">
		</image>
	</g>
</g>
<g>
	<polygon class="st4" points="80.8,542.7 79.4,550 76.1,551.4 77.6,558.6 74.5,552.5 76.9,548.8 78.9,549 	"/>
	<g>
		
			<image style="overflow:visible;" width="79" height="89" xlink:href="1028D085.png"  transform="matrix(1 0 0 1 37.8015 505.425)">
		</image>
	</g>
</g>
<g>
	<polygon class="st4" points="821.8,540.6 840.6,556.8 839.3,568.6 862.5,576.1 839.8,574.8 833.2,562.1 837.1,556.4 	"/>
	<g>
		
			<image style="overflow:visible;" width="114" height="108" xlink:href="1028D083.png"  transform="matrix(1 0 0 1 783.9121 504.1319)">
		</image>
	</g>
</g>
<g>
	<polygon class="st4" points="163.2,419 177,376.3 197.6,370.2 193.8,326.4 207.5,365.2 190.9,385.1 178.7,382.5 	"/>
	<g>
		
			<image style="overflow:visible;" width="117" height="166" xlink:href="1028D08C.png"  transform="matrix(1 0 0 1 127.0739 292.0084)">
		</image>
	</g>
</g>
<g>
	<polygon class="st4" points="912.5,413.4 895.8,387.6 901.5,374 876.5,357.2 903.1,366.6 906.4,384 899.8,389.3 	"/>
	<g>
		
			<image style="overflow:visible;" width="109" height="130" xlink:href="1028D08F.png"  transform="matrix(1 0 0 1 841.1539 321.0769)">
		</image>
	</g>
</g>
<g>
	<polygon class="st4" points="488.5,414.9 505.2,389.2 499.6,375.6 524.5,358.7 497.9,368.2 494.6,385.5 501.2,390.9 	"/>
	<g>
		
			<image style="overflow:visible;" width="109" height="129" xlink:href="1028D08D.png"  transform="matrix(1 0 0 1 450.9451 323.3736)">
		</image>
	</g>
</g>
</svg>
